<svg xmlns="http://www.w3.org/2000/svg" xmlns:svg="http://www.w3.org/2000/svg" id="svg10" width="1000" height="500" aria-describedby="desc" aria-labelledby="title" role="img" version="1.1" viewBox="0 0 1000 500"><metadata id="metadata16"/><title id="title2">Ticket</title><desc id="desc4">A line styled icon from Orion Icon Library.</desc><rect style="opacity:1;fill:#1ab7ea;fill-opacity:1;fill-rule:evenodd;stroke:none;stroke-width:1.99937022;stroke-linecap:square;stroke-linejoin:miter;stroke-miterlimit:10;stroke-dasharray:none;stroke-dashoffset:0;stroke-opacity:1;paint-order:normal" id="rect4658" width="1000" height="500" x="0" y="0"/><g style="fill:#fff;fill-opacity:1;stroke-width:.10225521" id="g857" transform="matrix(9.7794524,0,0,9.7794524,158.27882,52.07566)"><path id="path4" d="m 15.72,9.431 c -0.069,1.514 -1.127,3.588 -3.172,6.22 -2.114,2.749 -3.903,4.124 -5.367,4.124 -0.906,0 -1.673,-0.837 -2.3,-2.512 C 4.463,15.728 4.044,14.194 3.626,12.659 3.161,10.985 2.662,10.147 2.128,10.147 c -0.116,0 -0.524,0.245 -1.221,0.733 L 0.176,9.937 C 0.943,9.263 1.7,8.588 2.445,7.912 3.469,7.028 4.237,6.562 4.75,6.515 5.96,6.399 6.705,7.227 6.985,8.998 c 0.302,1.912 0.511,3.101 0.628,3.566 0.349,1.586 0.733,2.378 1.152,2.378 0.326,0 0.815,-0.515 1.467,-1.543 0.651,-1.029 1,-1.812 1.047,-2.349 0.093,-0.888 -0.256,-1.333 -1.047,-1.333 -0.373,0 -0.757,0.085 -1.151,0.255 0.764,-2.504 2.224,-3.721 4.38,-3.652 1.598,0.047 2.351,1.084 2.259,3.111" style="fill:#fff;fill-opacity:1;stroke-width:.10225521"/><path id="path6" d="m 22.281,1.918 c -0.023,0.58 -0.314,1.136 -0.874,1.669 -0.628,0.602 -1.373,0.903 -2.234,0.903 -1.327,0 -1.968,-0.579 -1.921,-1.737 0.022,-0.602 0.378,-1.182 1.064,-1.738 0.687,-0.555 1.449,-0.834 2.288,-0.834 0.489,0 0.896,0.192 1.223,0.574 0.325,0.382 0.477,0.77 0.454,1.163 z m 3.038,12.419 c -0.652,1.232 -1.548,2.349 -2.689,3.349 -1.56,1.349 -3.119,2.024 -4.679,2.024 -0.723,0 -1.275,-0.233 -1.659,-0.699 -0.384,-0.465 -0.565,-1.069 -0.541,-1.814 0.022,-0.767 0.261,-1.954 0.715,-3.56 0.454,-1.605 0.682,-2.466 0.682,-2.582 0,-0.605 -0.21,-0.908 -0.629,-0.908 -0.139,0 -0.536,0.245 -1.188,0.733 L 14.528,9.937 c 0.745,-0.674 1.49,-1.349 2.235,-2.025 1.001,-0.884 1.746,-1.35 2.236,-1.397 0.768,-0.069 1.332,0.157 1.693,0.679 0.36,0.523 0.494,1.2 0.402,2.035 -0.303,1.415 -0.629,3.212 -0.978,5.392 -0.024,0.998 0.337,1.496 1.082,1.496 0.326,0 0.908,-0.344 1.746,-1.033 0.699,-0.574 1.269,-1.114 1.712,-1.62 l 0.663,0.873" style="fill:#fff;fill-opacity:1;stroke-width:.10225521"/><path id="path8" d="m 47.127,14.336 c -0.652,1.233 -1.548,2.349 -2.689,3.349 -1.56,1.349 -3.12,2.024 -4.679,2.024 -1.514,0 -2.247,-0.837 -2.2,-2.513 0.022,-0.745 0.168,-1.639 0.436,-2.686 0.267,-1.048 0.413,-1.862 0.436,-2.444 0.024,-0.883 -0.245,-1.326 -0.806,-1.326 -0.607,0 -1.331,0.722 -2.172,2.165 -0.887,1.514 -1.367,2.98 -1.436,4.4 -0.05,1.002 0.05,1.77 0.293,2.305 -1.624,0.047 -2.762,-0.221 -3.411,-0.803 -0.582,-0.512 -0.848,-1.361 -0.801,-2.549 0.02,-0.745 0.136,-1.49 0.343,-2.235 0.205,-0.745 0.319,-1.408 0.342,-1.991 0.05,-0.861 -0.268,-1.292 -0.944,-1.292 -0.583,0 -1.213,0.664 -1.888,1.991 -0.676,1.326 -1.049,2.712 -1.119,4.155 -0.05,1.305 0.04,2.212 0.25,2.724 -1.598,0.047 -2.733,-0.29 -3.404,-1.01 -0.558,-0.603 -0.812,-1.52 -0.765,-2.751 0.02,-0.603 0.129,-1.445 0.321,-2.524 0.192,-1.08 0.299,-1.921 0.321,-2.525 0.05,-0.417 -0.06,-0.627 -0.314,-0.627 -0.14,0 -0.536,0.236 -1.188,0.707 L 21.215,9.937 c 0.117,-0.092 0.849,-0.768 2.2,-2.025 0.978,-0.907 1.641,-1.373 1.99,-1.396 0.606,-0.047 1.094,0.203 1.467,0.75 0.372,0.547 0.559,1.182 0.559,1.903 0,0.233 -0.02,0.454 -0.07,0.664 0.349,-0.535 0.756,-1.002 1.222,-1.398 1.071,-0.93 2.27,-1.455 3.597,-1.571 1.141,-0.093 1.955,0.174 2.445,0.803 0.395,0.512 0.581,1.246 0.558,2.2 0.163,-0.139 0.338,-0.291 0.525,-0.454 0.534,-0.628 1.058,-1.128 1.57,-1.501 0.861,-0.629 1.759,-0.978 2.689,-1.048 1.118,-0.093 1.921,0.173 2.41,0.8 0.418,0.51 0.605,1.241 0.559,2.191 -0.024,0.65 -0.181,1.595 -0.472,2.836 -0.292,1.241 -0.436,1.953 -0.436,2.139 -0.024,0.488 0.023,0.824 0.139,1.009 0.117,0.186 0.395,0.278 0.838,0.278 0.326,0 0.907,-0.344 1.746,-1.034 0.698,-0.573 1.269,-1.113 1.712,-1.619 l 0.664,0.872" style="fill:#fff;fill-opacity:1;stroke-width:.10225521"/><path id="path10" d="m 52.295,10.654 c 0.022,-0.625 -0.233,-0.938 -0.767,-0.938 -0.698,0 -1.407,0.481 -2.127,1.442 -0.721,0.961 -1.093,1.882 -1.116,2.762 -0.013,0 -0.013,0.151 0,0.452 1.139,-0.417 2.127,-1.053 2.964,-1.911 0.674,-0.741 1.022,-1.344 1.046,-1.807 z m 7.927,3.646 c -0.675,1.117 -2.002,2.232 -3.981,3.348 -2.467,1.418 -4.971,2.126 -7.508,2.126 -1.885,0 -3.237,-0.628 -4.051,-1.885 -0.582,-0.861 -0.861,-1.885 -0.838,-3.072 0.023,-1.885 0.862,-3.677 2.515,-5.377 1.815,-1.862 3.957,-2.794 6.425,-2.794 2.282,0 3.492,0.93 3.632,2.787 0.093,1.184 -0.559,2.404 -1.956,3.658 -1.49,1.371 -3.365,2.241 -5.622,2.612 0.418,0.581 1.046,0.871 1.885,0.871 1.676,0 3.504,-0.426 5.483,-1.279 1.42,-0.599 2.538,-1.221 3.353,-1.866 l 0.663,0.871" style="fill:#fff;fill-opacity:1;stroke-width:.10225521"/><path id="path12" d="m 65.755,11.828 c 0.023,-0.63 -0.064,-1.207 -0.262,-1.732 -0.198,-0.524 -0.484,-0.788 -0.855,-0.788 -1.188,0 -2.166,0.642 -2.933,1.925 -0.653,1.05 -1.003,2.17 -1.048,3.358 -0.024,0.584 0.081,1.098 0.314,1.54 0.255,0.514 0.616,0.77 1.083,0.77 1.047,0 1.944,-0.617 2.689,-1.854 0.628,-1.027 0.965,-2.1 1.012,-3.219 z m 3.946,0.132 c -0.093,2.139 -0.884,3.987 -2.374,5.544 -1.49,1.557 -3.342,2.336 -5.553,2.336 -1.839,0 -3.236,-0.593 -4.19,-1.779 -0.698,-0.883 -1.083,-1.987 -1.152,-3.311 -0.118,-2 0.604,-3.836 2.165,-5.51 1.676,-1.859 3.782,-2.789 6.32,-2.789 1.629,0 2.863,0.547 3.702,1.639 0.792,1 1.152,2.29 1.082,3.87" style="fill:#fff;fill-opacity:1;stroke-width:.10225521"/></g><g style="clip-rule:evenodd;fill:#fff;fill-opacity:1;fill-rule:evenodd;stroke-linejoin:round;stroke-miterlimit:1.41420996" id="g891" transform="matrix(0.83770426,0,0,0.83770426,126.37264,220.88382)"><g style="fill:#fff;fill-opacity:1" id="g4578" transform="matrix(1.0666649,0,0,1.0666667,-106.57276,-231.26731)"><g style="fill:#fff;fill-opacity:1" id="g3"><g style="fill:#fff;fill-opacity:1" id="g5"><path style="fill:#fff;fill-opacity:1" id="path9" d="m 303.46476,460.56309 h -96.377 l -27.488,-79.131 34.399,25.252 c -0.172,0.873 -0.264,1.727 -0.264,2.584 0,7.815 6.359,14.175 14.175,14.175 7.812,0 14.175,-6.359 14.175,-14.175 0,-6.091 -3.797,-11.274 -9.273,-13.255 l 22.465,-47.363 22.396,47.239 c -5.627,1.898 -9.629,7.193 -9.629,13.384 0,7.815 6.359,14.175 14.175,14.175 7.81,0 14.175,-6.359 14.175,-14.175 0,-1.036 -0.121,-2.077 -0.364,-3.103 l 34.984,-24.922 z"/></g></g></g><g id="text4582" aria-label="GamiPress" style="font-style:normal;font-weight:400;font-size:40px;line-height:125%;font-family:sans-serif;letter-spacing:0;word-spacing:0;fill:#fff;fill-opacity:1;stroke:none;stroke-width:1px;stroke-linecap:butt;stroke-linejoin:miter;stroke-opacity:1"><path id="path4505" d="m 329.82646,241.28667 q -11.67334,13.14667 -27.08667,13.14667 -8.16,0 -15.18667,-3.51334 -6.91333,-3.51333 -11.9,-9.29333 -4.98666,-5.78 -7.82,-13.14667 -2.83333,-7.36667 -2.83333,-14.96 0,-7.93333 2.72,-15.3 2.83333,-7.36667 7.70667,-13.03333 4.98666,-5.66667 11.78666,-8.95334 6.8,-3.4 14.84667,-3.4 6.00667,0 10.76667,1.36 4.87333,1.24667 8.61333,3.62667 3.85333,2.26667 6.57333,5.55333 2.83334,3.17334 4.76,7.02667 l -4.76,2.83333 q -4.08,-7.93333 -10.88,-11.44666 -6.68666,-3.62667 -15.18666,-3.62667 -7.14,0 -12.92,3.06 -5.78,3.06 -9.86,8.04667 -4.08,4.98666 -6.23334,11.33333 -2.15333,6.34667 -2.15333,13.03333 0,7.14 2.49333,13.6 2.49334,6.34667 6.8,11.22001 4.42,4.87333 10.31334,7.82 5.89333,2.83333 12.69333,2.83333 7.36667,0 13.94,-3.4 6.68667,-3.4 12.80667,-10.76667 v -15.52667 h -18.24667 v -4.64666 h 23.23333 v 39.1 h -4.98666 z" style="font-style:normal;font-variant:normal;font-weight:300;font-stretch:normal;font-size:113.33333588px;font-family:Raleway;-inkscape-font-specification:'Raleway Light';fill:#fff;fill-opacity:1"/><path id="path4507" d="m 364.59677,255 q -4.08,0 -7.59333,-1.36 -3.51333,-1.47333 -6.23333,-3.85333 -2.60667,-2.49333 -4.08,-5.78 -1.47334,-3.4 -1.47334,-7.25334 0,-3.85333 1.81334,-7.02666 1.81333,-3.17334 4.98666,-5.44 3.28667,-2.38 7.82,-3.62667 4.53334,-1.36 9.97334,-1.36 4.76,0 9.52,0.90667 4.87333,0.79333 8.72666,2.26666 v -5.78 q 0,-8.38666 -4.76,-13.26 -4.76,-4.98666 -12.92,-4.98666 -4.30666,0 -9.18,1.81333 -4.76,1.81333 -9.74666,5.21333 L 349.29677,201.62 q 11.33334,-7.70667 21.53334,-7.70667 10.65333,0 16.77333,6.23334 6.12,6.12 6.12,17 v 28.78667 q 0,2.83333 2.49333,2.83333 v 5.1 q -0.56666,0.11333 -1.24666,0.11333 -0.56667,0.11334 -1.02,0.11334 -2.26667,0 -3.62667,-1.47334 -1.36,-1.58666 -1.58667,-3.74 v -4.87333 q -4.08,5.32667 -10.42666,8.16 Q 371.96344,255 364.59677,255 Z m 1.13334,-4.53333 q 6.57333,0 12.01333,-2.49333 5.55333,-2.49334 8.5,-6.57334 1.81333,-2.38 1.81333,-4.53333 V 226.44 q -4.08,-1.58667 -8.5,-2.38 -4.42,-0.79333 -9.18,-0.79333 -4.42,0 -8.04666,1.02 -3.62667,0.90666 -6.23334,2.60666 -2.60666,1.7 -4.08,4.19334 -1.36,2.38 -1.36,5.32666 0,2.94667 1.13334,5.55334 1.13333,2.60667 3.17333,4.53333 2.04,1.81334 4.76,2.94667 2.83333,1.02 6.00667,1.02 z" style="font-style:normal;font-variant:normal;font-weight:300;font-stretch:normal;font-size:113.33333588px;font-family:Raleway;-inkscape-font-specification:'Raleway Light';fill:#fff;fill-opacity:1"/><path id="path4509" d="M 497.54917,253.86667 H 491.8825 V 221 q 0,-11.22 -3.51333,-16.54667 -3.4,-5.32666 -10.54,-5.32666 -3.62667,0 -6.91334,1.36 -3.28666,1.36 -6.00666,3.85333 -2.72,2.38 -4.76,5.78 -1.92667,3.28667 -3.06,7.36667 v 36.38 H 451.4225 V 221 q 0,-11.33333 -3.4,-16.54667 -3.4,-5.32666 -10.54,-5.32666 -3.62667,0 -6.91334,1.36 -3.17333,1.24666 -5.89333,3.74 -2.72,2.38 -4.87333,5.78 -2.04,3.28666 -3.17334,7.36666 v 36.49334 h -5.66666 v -58.93334 h 5.32666 v 14.05334 q 3.62667,-7.14 9.52,-11.10667 5.89334,-3.96667 13.03334,-3.96667 7.48,0 12.12667,4.42 4.64666,4.42 5.55333,11.56 8.38667,-15.98 23.12,-15.98 9.63333,0 13.71333,6.91334 4.19334,6.8 4.19334,19.15333 z" style="font-style:normal;font-variant:normal;font-weight:300;font-stretch:normal;font-size:113.33333588px;font-family:Raleway;-inkscape-font-specification:'Raleway Light';fill:#fff;fill-opacity:1"/><path id="path4511" d="m 514.55625,253.86667 v -58.93334 h 5.66666 v 58.93334 z m 0,-72.30667 v -10.42667 h 5.66666 V 181.56 Z" style="font-style:normal;font-variant:normal;font-weight:300;font-stretch:normal;font-size:113.33333588px;font-family:Raleway;-inkscape-font-specification:'Raleway Light';fill:#fff;fill-opacity:1"/><path id="path4513" d="M 539.71981,253.86667 V 173.4 h 33.09333 q 5.1,0 9.40667,2.15333 4.30667,2.15334 7.36667,5.78 3.17333,3.51334 4.87333,8.04667 1.81333,4.42 1.81333,8.95333 0,4.87334 -1.7,9.40667 -1.58666,4.53333 -4.64666,8.04667 -2.94667,3.51333 -7.14,5.66666 -4.19334,2.04 -9.29334,2.04 h -27.99333 v 30.37334 z m 5.78,-35.7 h 27.76667 q 3.96666,0 7.14,-1.58667 3.17333,-1.7 5.32666,-4.42 2.26667,-2.83333 3.4,-6.34667 1.24667,-3.62666 1.24667,-7.48 0,-3.96666 -1.47333,-7.48 -1.36,-3.62666 -3.85334,-6.34666 -2.38,-2.72 -5.66666,-4.30667 -3.17334,-1.58667 -6.8,-1.58667 h -27.08667 z" style="font-style:normal;font-variant:normal;font-weight:300;font-stretch:normal;font-size:113.33333588px;font-family:Raleway;-inkscape-font-specification:'Raleway Light';fill:#fff;fill-opacity:1"/><path id="path4515" d="m 636.29044,200.03333 q -7.93334,0.22667 -13.94,4.76 -5.89334,4.42 -8.27334,12.24 v 36.83334 h -5.66667 v -58.93334 h 5.44 V 209.44 q 3.06,-6.23333 8.04667,-10.08667 5.1,-3.96666 10.88,-4.53333 1.13334,-0.11333 2.04,-0.11333 0.90667,0 1.47334,0 z" style="font-style:normal;font-variant:normal;font-weight:300;font-stretch:normal;font-size:113.33333588px;font-family:Raleway;-inkscape-font-specification:'Raleway Light';fill:#fff;fill-opacity:1"/><path id="path4517" d="m 669.31648,255 q -6.23334,0 -11.56,-2.38 -5.32667,-2.49333 -9.29334,-6.68666 -3.85333,-4.30667 -6.12,-9.86001 -2.15333,-5.55333 -2.15333,-11.9 0,-6.23333 2.15333,-11.67333 2.26667,-5.55333 6.12,-9.63333 3.85334,-4.19334 9.06667,-6.57334 5.32667,-2.38 11.44667,-2.38 6.23333,0 11.56,2.49334 5.32666,2.38 9.18,6.57333 3.85333,4.08 6.00666,9.63333 2.15334,5.44 2.15334,11.56 0,0.56667 0,1.47334 0,0.79333 -0.11334,1.02 h -51.68 q 0.34,5.1 2.38,9.52 2.04,4.30667 5.1,7.48 3.17334,3.17333 7.25334,4.98667 4.08,1.81333 8.72666,1.81333 3.06,0 6.00667,-0.79333 2.94667,-0.90667 5.44,-2.38 2.60667,-1.47334 4.53333,-3.51334 2.04,-2.15333 3.17334,-4.64666 l 4.98666,1.36 q -1.24666,3.17333 -3.74,5.89333 -2.38,2.60667 -5.66666,4.53333 -3.17334,1.92667 -7.02667,2.94667 Q 673.39648,255 669.31648,255 Z m 23.12,-32.86667 q -0.34,-5.21333 -2.38,-9.52 -1.92667,-4.30666 -5.1,-7.36666 -3.06,-3.17334 -7.14,-4.87334 -4.08,-1.81333 -8.72667,-1.81333 -4.64667,0 -8.72667,1.81333 -4.08,1.7 -7.25333,4.87334 -3.06,3.06 -4.98667,7.48 -1.81333,4.30666 -2.15333,9.40666 z" style="font-style:normal;font-variant:normal;font-weight:300;font-stretch:normal;font-size:113.33333588px;font-family:Raleway;-inkscape-font-specification:'Raleway Light';fill:#fff;fill-opacity:1"/><path id="path4519" d="m 729.15469,255 q -6.8,0 -13.03334,-2.26666 -6.23333,-2.26667 -10.88,-6.8 l 2.83334,-3.85334 q 4.76,4.30667 9.86,6.34667 5.1,2.04 11.22,2.04 7.70666,0 12.35333,-3.17333 4.76,-3.28667 4.76,-9.06667 0,-2.72 -1.24667,-4.53334 -1.13333,-1.92666 -3.51333,-3.17333 -2.38,-1.36 -5.89333,-2.38 -3.51334,-1.02 -8.16,-2.15333 -4.98667,-1.13334 -8.72667,-2.26667 -3.62667,-1.13333 -6.00667,-2.72 -2.38,-1.58667 -3.62666,-3.85333 -1.13334,-2.26667 -1.13334,-5.78 0,-4.42 1.7,-7.70667 1.7,-3.28667 4.64667,-5.44 3.06,-2.15333 6.91333,-3.17333 3.96667,-1.13334 8.38667,-1.13334 6.91333,0 12.24,2.38 5.32667,2.26667 8.27333,5.89334 l -3.17333,3.06 q -2.94667,-3.4 -7.70667,-5.1 -4.64666,-1.7 -9.97333,-1.7 -3.28667,0 -6.23333,0.68 -2.83334,0.68 -4.98667,2.15333 -2.15333,1.47333 -3.4,3.85333 -1.24667,2.26667 -1.24667,5.44 0,2.60667 0.79334,4.19334 0.90666,1.58666 2.72,2.72 1.92666,1.13333 4.87333,2.04 2.94667,0.79333 7.02667,1.81333 5.55333,1.36 9.86,2.60667 4.30666,1.24666 7.14,3.06 2.94666,1.81333 4.42,4.30666 1.58666,2.49334 1.58666,6.34667 0,7.93334 -6.23333,12.69334 Q 739.46802,255 729.15469,255 Z" style="font-style:normal;font-variant:normal;font-weight:300;font-stretch:normal;font-size:113.33333588px;font-family:Raleway;-inkscape-font-specification:'Raleway Light';fill:#fff;fill-opacity:1"/><path id="path4521" d="m 783.60781,255 q -6.8,0 -13.03333,-2.26666 -6.23334,-2.26667 -10.88,-6.8 l 2.83333,-3.85334 q 4.76,4.30667 9.86,6.34667 5.1,2.04 11.22,2.04 7.70667,0 12.35333,-3.17333 4.76,-3.28667 4.76,-9.06667 0,-2.72 -1.24666,-4.53334 -1.13334,-1.92666 -3.51334,-3.17333 -2.38,-1.36 -5.89333,-2.38 -3.51333,-1.02 -8.16,-2.15333 -4.98667,-1.13334 -8.72667,-2.26667 -3.62666,-1.13333 -6.00666,-2.72 -2.38,-1.58667 -3.62667,-3.85333 -1.13333,-2.26667 -1.13333,-5.78 0,-4.42 1.7,-7.70667 1.7,-3.28667 4.64666,-5.44 3.06,-2.15333 6.91334,-3.17333 3.96666,-1.13334 8.38666,-1.13334 6.91334,0 12.24,2.38 5.32667,2.26667 8.27334,5.89334 l -3.17334,3.06 q -2.94666,-3.4 -7.70666,-5.1 -4.64667,-1.7 -9.97334,-1.7 -3.28666,0 -6.23333,0.68 -2.83333,0.68 -4.98667,2.15333 -2.15333,1.47333 -3.4,3.85333 -1.24666,2.26667 -1.24666,5.44 0,2.60667 0.79333,4.19334 0.90667,1.58666 2.72,2.72 1.92667,1.13333 4.87333,2.04 2.94667,0.79333 7.02667,1.81333 5.55333,1.36 9.86,2.60667 4.30667,1.24666 7.14,3.06 2.94667,1.81333 4.42,4.30666 1.58667,2.49334 1.58667,6.34667 0,7.93334 -6.23334,12.69334 Q 793.92114,255 783.60781,255 Z" style="font-style:normal;font-variant:normal;font-weight:300;font-stretch:normal;font-size:113.33333588px;font-family:Raleway;-inkscape-font-specification:'Raleway Light';fill:#fff;fill-opacity:1"/></g></g></svg>