<svg xmlns="http://www.w3.org/2000/svg" width="200" height="200" viewBox="0 0 200 200"><defs><radialGradient id="bgGrad" cx="50%" cy="40%" r="60%"><stop offset="0%" stop-color="#0f1a2e"/><stop offset="100%" stop-color="#070d1a"/></radialGradient><radialGradient id="glowGrad" cx="50%" cy="50%" r="50%"><stop offset="0%" stop-color="#0D96FF" stop-opacity=".25"/><stop offset="100%" stop-color="#0D96FF" stop-opacity="0"/></radialGradient><radialGradient id="faceGrad" cx="50%" cy="35%" r="55%"><stop offset="0%" stop-color="#1e3a5f"/><stop offset="100%" stop-color="#0d2040"/></radialGradient><clipPath id="circle"><circle cx="100" cy="100" r="100"/></clipPath><filter id="glow"><feGaussianBlur result="blur" stdDeviation="3"/><feMerge><feMergeNode in="blur"/><feMergeNode in="SourceGraphic"/></feMerge></filter></defs><circle cx="100" cy="100" r="100" fill="url(#bgGrad)"/><circle cx="100" cy="85" r="70" fill="url(#glowGrad)"/><ellipse cx="100" cy="175" fill="#0d1f3c" clip-path="url(#circle)" rx="62" ry="38"/><ellipse cx="100" cy="168" fill="#0e2244" clip-path="url(#circle)" rx="50" ry="30"/><rect width="24" height="20" x="88" y="122" fill="#1a3a6a" clip-path="url(#circle)" rx="8"/><ellipse cx="100" cy="95" fill="url(#faceGrad)" rx="34" ry="36"/><ellipse cx="100" cy="90" fill="#122a52" opacity=".6" rx="24" ry="26"/><ellipse cx="88" cy="92" fill="#0D96FF" filter="url(#glow)" opacity=".9" rx="5" ry="4.5"/><ellipse cx="112" cy="92" fill="#0D96FF" filter="url(#glow)" opacity=".9" rx="5" ry="4.5"/><circle cx="88" cy="92" r="2.5" fill="#001a3a"/><circle cx="112" cy="92" r="2.5" fill="#001a3a"/><circle cx="89.5" cy="90.5" r="1.2" fill="#7dcfff" opacity=".8"/><circle cx="113.5" cy="90.5" r="1.2" fill="#7dcfff" opacity=".8"/><path fill="none" stroke="#0D96FF" stroke-linecap="round" stroke-width="1.8" d="M82 85 Q88 82 94 84" opacity=".6"/><path fill="none" stroke="#0D96FF" stroke-linecap="round" stroke-width="1.8" d="M106 84 Q112 82 118 85" opacity=".6"/><path fill="none" stroke="#3a6a9a" stroke-linecap="round" stroke-width="1.5" d="M93 108 Q100 112 107 108"/><polygon fill="none" stroke="#0D96FF" stroke-width="1.2" points="100 72 104 77 100 82 96 77" opacity=".7"/><circle cx="100" cy="77" r="1.5" fill="#0D96FF" opacity=".9"/><circle cx="100" cy="100" r="95" fill="none" stroke="#0D96FF" stroke-width=".8" opacity=".15"/><circle cx="100" cy="100" r="98" fill="none" stroke="#0D96FF" stroke-width=".4" opacity=".08"/><path fill="#0D96FF" d="M 20 180 Q 100 200 180 180" opacity=".08"/></svg>