<svg xmlns="http://www.w3.org/2000/svg" xmlns:svg="http://www.w3.org/2000/svg" id="GamiPress" width="500" height="500" x="0" y="0" version="1.1" viewBox="0 0 167.548 167.548" xml:space="preserve"><metadata id="metadata47"/><path id="gamipress" d="M 137.06238,142.15553 H 30.500174 L 0.10721759,54.661898 38.141534,82.582552 c -0.190177,0.96526 -0.2919,1.909511 -0.2919,2.85708 0,8.640896 7.031025,15.673028 15.673027,15.673028 8.637579,0 15.673026,-7.031026 15.673026,-15.673028 0,-6.734702 -4.19827,-12.465447 -10.252979,-14.6558 L 83.78183,18.415468 108.54466,70.646727 c -6.22167,2.098583 -10.646603,7.953163 -10.646603,14.798433 0,8.640896 7.031023,15.67303 15.673023,15.67303 8.63537,0 15.67303,-7.031028 15.67303,-15.67303 0,-1.145486 -0.13379,-2.2965 -0.40247,-3.430928 l 38.68114,-27.555779 z" style="fill:#0098d7;fill-opacity:1;stroke-width:1.10568"/></svg>